<?xml version="1.0" encoding="UTF-8"?>
<svg width="60px" height="60px" viewBox="0 0 60 60" version="1.1" xmlns="http://www.w3.org/2000/svg" xmlns:xlink="http://www.w3.org/1999/xlink">
    <title>icon-headset</title>
    <g id="icon-headset" stroke="none" stroke-width="1" fill="none" fill-rule="evenodd">
        <g id="Group-21" transform="translate(12.000000, 6.000000)">
            <ellipse id="Oval" fill-opacity="0.171465253" fill="#00B6FF" cx="18.8471833" cy="17.7709388" rx="17.8469833" ry="17.7709388"></ellipse>
            <g id="thin-0309_support_help_talk_call" transform="translate(0.000000, 6.144200)" stroke="#265A6E" stroke-linecap="round" stroke-linejoin="round" stroke-width="2">
                <g id="Group">
                    <path d="M32.2876,31.4904 C31.9828,38.6408 28.1204,40.4084 21.4062,40.6438" id="Shape"></path>
                    <path d="M21.4062,40.685 C21.4062,41.4218 20.8092,42.0188 20.0724,42.0188 L17.2234,42.0188 C16.4866,42.0188 15.8896,41.4218 15.8896,40.685 L15.8896,40.685 C15.8896,39.9482 16.4866,39.3512 17.2234,39.3512 L20.0724,39.3512 C20.8092,39.3512 21.4062,39.9484 21.4062,40.685 L21.4062,40.685 L21.4062,40.685 Z" id="Shape"></path>
                    <path d="M5.9436,31.8456 L3.2798,31.8456 C1.4684,31.8456 -7.10542736e-15,30.6288 -7.10542736e-15,29.1278 L-7.10542736e-15,20.5538 C-7.10542736e-15,19.0528 1.4684,17.836 3.2798,17.836 L5.9436,17.836 L5.9436,31.8456 L5.9436,31.8456 Z" id="Shape" fill="#FFBC00"></path>
                    <path d="M28.0028,17.836 L30.6666,17.836 C32.478,17.836 33.9464,19.0528 33.9464,20.5538 L33.9464,29.1278 C33.9464,30.6288 32.478,31.8456 30.6666,31.8456 L28.0028,31.8456 L28.0028,17.836 L28.0028,17.836 Z" id="Shape" fill="#FFBC00"></path>
                    <path d="M3.9898,17.836 L3.9898,12.9884 C3.9898,5.8152 9.8048,-1.77635684e-15 16.9782,-1.77635684e-15 C24.1516,-1.77635684e-15 29.9666,5.815 29.9666,12.9884 L29.9666,17.8362" id="Shape"></path>
                </g>
            </g>
        </g>
    </g>
</svg>