<?xml version="1.0" encoding="UTF-8"?>
<svg width="60px" height="60px" viewBox="0 0 60 60" version="1.1" xmlns="http://www.w3.org/2000/svg" xmlns:xlink="http://www.w3.org/1999/xlink">
    <title>icon-user</title>
    <g id="icon-user" stroke="none" stroke-width="1" fill="none" fill-rule="evenodd">
        <g id="Group-17" transform="translate(11.000000, 6.000000)">
            <ellipse id="Oval" fill-opacity="0.171465253" fill="#00B6FF" cx="18.8469833" cy="24.7709388" rx="17.8469833" ry="17.7709388"></ellipse>
            <g id="Group-221" stroke="#265A6E" stroke-linecap="round" stroke-linejoin="round" stroke-width="2">
                <line x1="36.0902482" y1="45.9866616" x2="1.91055611" y2="45.9866616" id="Stroke-729"></line>
                <path d="M0,39.9446332 L0,37.7903611 C0,28.9960992 5.27604635,23.8298729 11.782634,23.8298729 C14.9957141,23.8298729 15.0298958,21.8044545 15.0298958,21.8044545 L15.0298958,20.0186234 C13.8978782,18.8106204 13.0071432,17.1234428 12.4783322,15.1503712 C11.2136092,14.2202089 10.8979311,12.3035108 11.9454998,10.9565874 L11.9454998,6.95407072 C11.9454998,2.82471373 14.2758876,0 19.1739245,0 C24.2006455,0 26.398328,2.82471373 26.398328,6.95407072 L26.398328,10.9545741 C27.4479073,12.3035108 27.1342399,14.2202089 25.8654955,15.1523845 C25.3386952,17.1234428 24.4479602,18.8106204 23.3179533,20.0186234 L23.3179533,21.8044545 C23.3179533,21.8044545 22.9560294,23.8298729 26.2193767,23.8298729 C32.7259643,23.8298729 38,28.9960992 38,37.7903611 L38,39.9446332" id="Stroke-730"></path>
                <path d="M31.0311551,45.9866616 L6.81844542,45.9866616 L5.99808455,31.0879577 C5.96189216,30.4316094 6.48266046,29.881968 7.13613419,29.881968 L30.8522038,29.881968 C31.5117096,29.881968 32.0324779,30.4396628 31.9902535,31.0960111 L31.0311551,45.9866616 Z" id="Stroke-731" fill="#FFBC00"></path>
                <path d="M20.6891793,37.2431358 C20.6891793,38.1773248 19.9331605,38.93434 19.0002011,38.93434 C18.0672417,38.93434 17.3112228,38.1773248 17.3112228,37.2431358 C17.3112228,36.3089468 18.0672417,35.5519315 19.0002011,35.5519315 C19.9331605,35.5519315 20.6891793,36.3089468 20.6891793,37.2431358 Z" id="Stroke-732"></path>
            </g>
        </g>
    </g>
</svg>