<?xml version="1.0" encoding="UTF-8"?>
<svg width="60px" height="60px" viewBox="0 0 60 60" version="1.1" xmlns="http://www.w3.org/2000/svg" xmlns:xlink="http://www.w3.org/1999/xlink">
    <title>icon-work</title>
    <g id="icon-work" stroke="none" stroke-width="1" fill="none" fill-rule="evenodd">
        <g id="Group-59" transform="translate(7.000000, 7.000000)">
            <g id="Group-18" transform="translate(0.000000, 3.004000)" stroke="#265A6E" stroke-linecap="round" stroke-linejoin="round" stroke-width="2">
                <g id="Group-6">
                    <path d="M46.159,39.7318 C46.159,42.0816 44.2542,43.9864 41.9044,43.9864 L4.2546,43.9864 C1.9048,43.9864 9.76996262e-15,42.0816 9.76996262e-15,39.7318 L9.76996262e-15,14.2362 C9.76996262e-15,11.8864 1.9048,9.9816 4.2546,9.9816 L41.9044,9.9816 C44.2542,9.9816 46.159,11.8864 46.159,14.2362 L46.159,39.7318 L46.159,39.7318 Z" id="Shape"></path>
                    <path d="M14.0946,5.981 L14.0946,4.901 C14.0946,2.1942 16.416,-1.77635684e-15 19.2798,-1.77635684e-15 L26.855,-1.77635684e-15 C29.7186,-1.77635684e-15 32.0402,2.1942 32.0402,4.901 L32.0402,5.981" id="Shape"></path>
                    <line x1="26.0458" y1="22.0392" x2="46.159" y2="22.0392" id="Shape"></line>
                    <line x1="0.0002" y1="22.0392" x2="20.0148" y2="22.0392" id="Shape"></line>
                    <path d="M26.0458,25.006 C26.0458,25.5376 25.6152,25.9686 25.0836,25.9686 L20.977,25.9686 C20.4456,25.9686 20.015,25.5376 20.015,25.006 L20.015,20.8994 C20.015,20.368 20.4456,19.9374 20.977,19.9374 L25.0838,19.9374 C25.6152,19.9374 26.046,20.368 26.046,20.8994 L26.046,25.006 L26.0458,25.006 Z" id="Shape" fill="#FFBC00"></path>
                </g>
            </g>
            <ellipse id="Oval" fill-opacity="0.171465253" fill="#00B6FF" cx="22.9579833" cy="17.7709388" rx="17.8469833" ry="17.7709388"></ellipse>
        </g>
    </g>
</svg>