<?xml version="1.0" encoding="UTF-8"?>
<svg width="125px" height="128px" viewBox="0 0 125 128" version="1.1" xmlns="http://www.w3.org/2000/svg" xmlns:xlink="http://www.w3.org/1999/xlink">
    <title>icon-lg-card</title>
    <g id="icon-lg-card" stroke="none" stroke-width="1" fill="none" fill-rule="evenodd">
        <g transform="translate(15.000000, 31.000000)">
            <ellipse id="Oval" fill-opacity="0.171465253" fill="#00B6FF" cx="63.0378788" cy="43" rx="42.9621212" ry="43"></ellipse>
            <g id="Group-84" transform="translate(0.000000, 0.000000)" stroke="#265A6E" stroke-linecap="round" stroke-linejoin="round" stroke-width="4.8">
                <path d="M60.2714181,50.0469783 C61.9937683,51.4762938 64.1978948,52.333883 66.5987467,52.333883 C72.1110704,52.333883 76.5795455,47.8164409 76.5795455,42.2400974 C76.5795455,36.6677801 72.1110704,32.150338 66.5987467,32.150338 C64.19388,32.150338 61.9897535,33.0079272 60.2674033,34.441269" id="Stroke-953"></path>
                <path d="M92.3484848,58.9844276 C92.3484848,61.9195571 89.9757366,64.2990654 87.0489457,64.2990654 L5.29953917,64.2990654 C2.36873342,64.2990654 0,61.9195571 0,58.9844276 L0,5.3106116 C0,2.37548207 2.36873342,0 5.29953917,0 L87.0489457,0 C89.9757366,0 92.3484848,2.37548207 92.3484848,5.3106116 L92.3484848,58.9844276 Z" id="Stroke-954"></path>
                <line x1="92.3484848" y1="16.0304777" x2="0" y2="16.0304777" id="Stroke-955"></line>
                <path d="M43.9632907,42.2405 C43.9632907,47.8168435 48.4317658,52.3342857 53.9440895,52.3342857 C59.4564132,52.3342857 63.9289031,47.8168435 63.9289031,42.2405 C63.9289031,36.6681827 59.4564132,32.1507406 53.9440895,32.1507406 C48.4317658,32.1507406 43.9632907,36.6681827 43.9632907,42.2405 Z" id="Stroke-956" fill="#FFBC00"></path>
            </g>
        </g>
    </g>
</svg>