<?xml version="1.0" encoding="UTF-8"?>
<svg width="60px" height="60px" viewBox="0 0 60 60" version="1.1" xmlns="http://www.w3.org/2000/svg" xmlns:xlink="http://www.w3.org/1999/xlink">
    <title>icon-shake</title>
    <g id="icon-shake" stroke="none" stroke-width="1" fill="none" fill-rule="evenodd">
        <g id="Group-23" transform="translate(7.000000, 12.000000)">
            <ellipse id="Oval" fill-opacity="0.171465253" fill="#00B6FF" cx="22.6712925" cy="17.7709388" rx="17.8469833" ry="17.7709388"></ellipse>
            <g id="thin-0394_business_handshake_deal_contract_sign" transform="translate(0.000000, 5.674664)" stroke="#265A6E" stroke-linecap="round" stroke-linejoin="round" stroke-width="2">
                <g id="Group">
                    <line x1="31.4199092" y1="18.3717358" x2="27.1367092" y2="14.7743358" id="Shape"></line>
                    <line x1="27.4837092" y1="20.5523358" x2="23.9919092" y2="17.6943358" id="Shape"></line>
                    <path d="M8.41890922,13.0011358 C9.66150922,16.5729358 19.6683092,24.3055358 19.6683092,24.3055358 C22.0815092,26.3477358 24.2629092,23.2307358 22.2789092,21.5515358 L20.7577092,20.0751358" id="Shape"></path>
                    <path d="M20.7575092,20.0751358 L24.8957092,23.6685358 C27.2763092,25.6833358 29.5985092,22.3961358 27.6315092,20.7315358 L28.6753092,21.6147358 C30.7561092,23.3757358 33.4951092,20.1279358 31.4199092,18.3717358 L31.5811092,18.5081358 C33.6625092,20.2695358 36.4009092,17.0213358 34.3255092,15.2651358 L24.0819092,6.9127358 C24.0819092,6.9127358 22.1057092,7.6701358 21.3415092,7.4517358 C21.3415092,7.4517358 18.3921092,11.9753358 16.2357092,10.4031358 C14.0793092,8.8309358 16.2355092,2.1369358 22.2971092,1.1805358 C22.2971092,1.1805358 25.0251092,0.4027358 31.7063092,3.8461358 L34.1831092,3.0961358" id="Shape"></path>
                    <polygon id="Rectangle-path" fill="#FFBC00" transform="translate(5.759341, 8.545522) rotate(195.812395) translate(-5.759341, -8.545522) " points="1.98618083 0.732490056 9.53250187 0.732490056 9.53250187 16.3585548 1.98618083 16.3585548"></polygon>
                    <polygon id="Rectangle-path" fill="#FFBC00" transform="translate(39.913259, 8.947152) rotate(-15.812395) translate(-39.913259, -8.947152) " points="36.1400989 1.13411992 43.6864199 1.13411992 43.6864199 16.7601847 36.1400989 16.7601847"></polygon>
                    <path d="M11.2313092,3.0695358 C11.2313092,3.0695358 11.5831092,2.4307358 19.2841092,2.2635358" id="Shape"></path>
                    <path d="M34.9863092,16.3323358 C34.9863092,16.3323358 36.8951092,16.8269358 37.8967092,15.6823358" id="Shape"></path>
                </g>
            </g>
        </g>
    </g>
</svg>