<?xml version="1.0" encoding="UTF-8"?>
<svg width="60px" height="60px" viewBox="0 0 60 60" version="1.1" xmlns="http://www.w3.org/2000/svg" xmlns:xlink="http://www.w3.org/1999/xlink">
    <title>icon-teach</title>
    <g id="icon-teach" stroke="none" stroke-width="1" fill="none" fill-rule="evenodd">
        <g id="Group-19" transform="translate(6.000000, 3.000000)">
            <ellipse id="Oval" fill-opacity="0.171465253" fill="#00B6FF" cx="17.8469833" cy="36.7709388" rx="17.8469833" ry="17.7709388"></ellipse>
            <g id="Group-290" transform="translate(2.000000, 0.000000)" stroke="#265A6E" stroke-linecap="round" stroke-linejoin="round" stroke-width="2">
                <line x1="40.0267768" y1="45.9070108" x2="40.0267768" y2="29.2831849" id="Stroke-3429"></line>
                <path d="M42.733925,4.53482739 C42.733925,6.06193472 41.5234116,8.19226949 40.0267768,8.19226949 C38.5321428,8.19226949 37.3216294,6.06193472 37.3216294,4.53482739 C37.3216294,3.00772006 38.5321428,1.77120402 40.0267768,1.77120402 C41.5234116,1.77120402 42.733925,3.00772006 42.733925,4.53482739 Z" id="Stroke-3430" fill="#FFBC00"></path>
                <path d="M36.5252917,45.9070108 L35.4548377,26.2510151 L35.4548377,19.0082777 C35.4548377,17.4390847 34.5424507,16.0141854 33.1178465,15.3628601 L24.0479996,11.2104107 L24.0479996,9.89974383 L33.9341927,9.89974383 C35.3107766,9.89974383 36.3672246,10.5691058 37.2155844,11.5931896 C38.4981284,13.148354 41.3973581,13.3427496 42.2117035,11.7294669 C42.4418011,11.2765453 45.1269399,11.9018176 45.1269399,11.9018176 C45.1269399,11.9018176 46.3874746,12.0902009 45.879259,25.9924891 C45.8652531,26.3692557 44.6147227,25.8542077 44.6007167,26.2510151 L43.5282619,45.9070108" id="Stroke-3431"></path>
                <line x1="22.0191391" y1="1.96600038" x2="22.0191391" y2="0" id="Stroke-3432"></line>
                <line x1="2.01065279" y1="29.9623669" x2="2.01065279" y2="1.96539916" id="Stroke-3433"></line>
                <line x1="32.0135781" y1="1.96600038" x2="0" y2="1.96600038" id="Stroke-3434"></line>
                <line x1="32.0135781" y1="30.0230905" x2="0" y2="30.0230905" id="Stroke-3435"></line>
                <path d="M25.5352304,38.0149522 C25.5352304,39.3476639 24.4287611,41.2074482 23.0661832,41.2074482 C21.7036053,41.2074482 20.5991368,39.3476639 20.5991368,38.0149522 C20.5991368,36.6822404 21.7036053,35.6020424 23.0661832,35.6020424 C24.4287611,35.6020424 25.5352304,36.6822404 25.5352304,38.0149522 Z" id="Stroke-3436" fill="#FFBC00"></path>
                <path d="M29.6921935,46 C29.8642665,44.791541 28.9298702,43.7113431 27.7113534,43.7113431 L25.5344301,43.7113431 C23.8617206,45.3887563 22.0409483,45.3887563 20.366238,43.7113431 L18.3193699,43.7113431 C17.1028539,43.7113431 16.1664568,44.791541 16.3385297,46" id="Stroke-3437"></path>
                <path d="M9.52744093,38.0149522 C9.52744093,39.3476639 8.42097163,41.2074482 7.05839371,41.2074482 C5.6958158,41.2074482 4.5893465,39.3476639 4.5893465,38.0149522 C4.5893465,36.6822404 5.6958158,35.6020424 7.05839371,35.6020424 C8.42097163,35.6020424 9.52744093,36.6822404 9.52744093,38.0149522 Z" id="Stroke-3438" fill="#FFBC00"></path>
                <path d="M13.6846041,46 C13.8566771,44.791541 12.9222808,43.7113431 11.703764,43.7113431 L9.52684067,43.7113431 C7.85413122,45.3887563 6.03335896,45.3887563 4.35864866,43.7113431 L2.31178051,43.7113431 C1.09526454,43.7113431 0.158867381,44.791541 0.330940364,46" id="Stroke-3439"></path>
            </g>
        </g>
    </g>
</svg>