<?xml version="1.0" encoding="UTF-8"?>
<svg width="49px" height="38px" viewBox="0 0 49 38" version="1.1" xmlns="http://www.w3.org/2000/svg" xmlns:xlink="http://www.w3.org/1999/xlink">
    <title>thin-1038_study_university_school_degree_graduate</title>
    <g id="Core-design" stroke="none" stroke-width="1" fill="none" fill-rule="evenodd">
        <g id="On-Demand-course" transform="translate(-170.000000, -2081.000000)">
            <g id="Group" transform="translate(171.073200, 2081.238172)">
                <ellipse id="Oval" fill-opacity="0.171465253" fill="#00B6FF" cx="23.0798167" cy="17.7709388" rx="17.8469833" ry="17.7709388"></ellipse>
                <line x1="4.076" y1="23.9696281" x2="4.076" y2="30.2074281" id="Shape" stroke="#265A6E" stroke-width="2" stroke-linecap="round" stroke-linejoin="round"></line>
                <path d="M6.4286,34.6068281 C6.4286,35.2608281 5.8984,35.7906281 5.2444,35.7906281 L2.9082,35.7906281 C2.2546,35.7906281 1.7238,35.2608281 1.7238,34.6068281 L2.2828,31.3910281 C2.2828,30.7370281 2.8128,30.2074281 3.4668,30.2074281 L4.6862,30.2074281 C5.3398,30.2074281 5.87,30.7370281 5.87,31.3910281 L6.4286,34.6068281 L6.4286,34.6068281 Z" id="Shape" stroke="#265A6E" stroke-width="2" fill="#FFBC00" stroke-linecap="round" stroke-linejoin="round"></path>
                <polygon id="Shape" stroke="#265A6E" stroke-width="2" stroke-linecap="round" stroke-linejoin="round" points="7.6578 5.74862807 39.7538 5.74862807 45.9414 19.7896281 -1.42108547e-14 19.7896281"></polygon>
                <path d="M13.578,19.7896281 L10.9248,31.4068281 C10.9248,34.2178281 16.3496,35.7906281 23.0406,35.7906281 C29.7322,35.7906281 35.1566,34.2178281 35.1566,31.4068281 L32.503,19.7896281" id="Shape" stroke="#265A6E" stroke-width="2" stroke-linecap="round" stroke-linejoin="round"></path>
                <line x1="4.356" y1="11.8028281" x2="22.3486" y2="11.8028281" id="Shape" stroke="#265A6E" stroke-width="2" stroke-linecap="round" stroke-linejoin="round"></line>
            </g>
        </g>
    </g>
</svg>