<?xml version="1.0" encoding="UTF-8"?>
<svg width="60px" height="60px" viewBox="0 0 60 60" version="1.1" xmlns="http://www.w3.org/2000/svg" xmlns:xlink="http://www.w3.org/1999/xlink">
    <title>icon-clock</title>
    <g id="icon-clock" stroke="none" stroke-width="1" fill="none" fill-rule="evenodd">
        <g id="Group-15" transform="translate(8.000000, 8.000000)">
            <ellipse id="Oval" fill-opacity="0.171465253" fill="#00B6FF" cx="22.8469833" cy="22.7709388" rx="17.8469833" ry="17.7709388"></ellipse>
            <g id="Group-166" stroke="#265A6E" stroke-linecap="round" stroke-linejoin="round" stroke-width="2">
                <path d="M21.0207679,0.0484321194 C27.2619311,-0.360638219 33.64011,1.82173218 38.409844,6.59157176 C47.1967187,15.3786409 47.1967187,29.6246147 38.409844,38.4096981 C29.6229693,47.1967673 15.3773108,47.1967673 6.59043609,38.4096981 C-2.21629594,29.604757 -2.1964386,15.3131102 6.64802238,6.53199841" id="Stroke-926"></path>
                <path d="M24.9970025,21.6999691 L25.0049454,21.692026 L14.4170096,12.545531 C13.9781623,12.0967451 13.2692551,12.0967451 12.8323936,12.545531 C12.3935463,12.9923311 12.3935463,13.719126 12.8323936,14.1679119 C12.8323936,14.1679119 21.4981385,24.6528215 21.6172825,24.7719682 L21.6192683,24.7759398 L21.621254,24.773954 C22.0243581,25.1711097 22.5823494,25.4133746 23.1999128,25.4054315 C24.4529112,25.3915311 25.4795359,24.3668694 25.4934361,23.1138433 C25.4993933,22.5717258 25.3087628,22.0852101 24.9970025,21.6999691 Z" id="Stroke-927" fill="#FFBC00"></path>
                <line x1="9.9411643" y1="9.82422032" x2="6.64881668" y2="6.53179983" id="Stroke-928"></line>
            </g>
        </g>
    </g>
</svg>