<?xml version="1.0" encoding="UTF-8"?>
<svg width="134px" height="24px" viewBox="0 0 134 24" version="1.1" xmlns="http://www.w3.org/2000/svg" xmlns:xlink="http://www.w3.org/1999/xlink">
    <title>Group 7</title>
    <g id="Core-design" stroke="none" stroke-width="1" fill="none" fill-rule="evenodd">
        <g id="Home" transform="translate(-826.000000, -901.000000)">
            <g id="Group-7" transform="translate(826.000000, 901.000000)">
                <g id="NEW-PODCAST" transform="translate(39.092000, 6.549000)" fill="#138ABB" fill-rule="nonzero">
                    <path d="M0,9.451 L2.275,9.451 L2.275,5.122 C2.275,4.537 2.171,3.536 2.171,3.536 L2.197,3.536 C2.197,3.536 2.613,4.511 2.977,5.122 L5.564,9.451 L7.852,9.451 L7.852,0.156 L5.577,0.156 L5.577,4.498 C5.577,5.083 5.681,6.084 5.681,6.084 L5.655,6.084 C5.655,6.084 5.239,5.109 4.875,4.498 L2.301,0.156 L0,0.156 L0,9.451 Z" id="Path"></path>
                    <polygon id="Path" points="10.036 9.451 16.042 9.451 16.042 7.501 12.311 7.501 12.311 5.746 15.145 5.746 15.145 3.796 12.311 3.796 12.311 2.106 15.86 2.106 15.86 0.156 10.036 0.156"></polygon>
                    <path d="M19.123,9.451 L21.684,9.451 L22.854,4.758 C22.997,4.16 23.036,3.666 23.036,3.666 L23.062,3.666 C23.062,3.666 23.101,4.16 23.244,4.758 L24.414,9.451 L26.949,9.451 L29.302,0.156 L26.949,0.156 L25.675,5.967 C25.558,6.539 25.558,6.942 25.558,6.942 L25.532,6.942 C25.532,6.942 25.519,6.539 25.376,5.967 L23.985,0.156 L22.152,0.156 L20.722,5.967 C20.579,6.539 20.566,6.942 20.566,6.942 L20.54,6.942 C20.54,6.942 20.54,6.539 20.423,5.967 L19.253,0.156 L16.861,0.156 L19.123,9.451 Z" id="Path"></path>
                    <path d="M33.631,9.451 L35.906,9.451 L35.906,6.578 L37.492,6.578 C39.299,6.578 40.521,5.226 40.521,3.354 C40.521,1.482 39.299,0.156 37.492,0.156 L33.631,0.156 L33.631,9.451 Z M35.906,4.628 L35.906,2.106 L37.063,2.106 C37.817,2.106 38.207,2.613 38.207,3.354 C38.207,4.095 37.817,4.628 37.024,4.628 L35.906,4.628 Z" id="Shape"></path>
                    <path d="M41.236,4.745 C41.236,7.475 43.29,9.607 46.098,9.607 C48.906,9.607 50.96,7.475 50.96,4.745 C50.96,2.08 48.906,0 46.098,0 C43.29,0 41.236,2.08 41.236,4.745 Z M43.589,4.745 C43.589,3.224 44.707,2.08 46.098,2.08 C47.489,2.08 48.607,3.224 48.607,4.745 C48.607,6.331 47.489,7.527 46.098,7.527 C44.707,7.527 43.589,6.331 43.589,4.745 Z" id="Shape"></path>
                    <path d="M52.507,9.451 L55.809,9.451 C58.734,9.451 60.606,7.709 60.606,4.784 C60.606,1.859 58.734,0.156 55.809,0.156 L52.507,0.156 L52.507,9.451 Z M54.782,7.501 L54.782,2.106 L55.718,2.106 C57.252,2.106 58.253,3.016 58.253,4.784 C58.253,6.565 57.291,7.501 55.718,7.501 L54.782,7.501 Z" id="Shape"></path>
                    <path d="M61.568,4.784 C61.568,7.54 63.531,9.607 66.443,9.607 C68.874,9.607 70.187,8.047 70.187,8.047 L69.017,6.383 C69.017,6.383 67.951,7.527 66.547,7.527 C64.831,7.527 63.921,6.11 63.921,4.732 C63.921,3.393 64.766,2.08 66.547,2.08 C67.834,2.08 68.874,3.029 68.874,3.029 L69.927,1.313 C69.927,1.313 68.744,0 66.443,0 C63.648,0 61.568,2.08 61.568,4.784 Z" id="Path"></path>
                    <path d="M76.791,9.451 L79.131,9.451 L75.972,0.156 L73.58,0.156 L70.421,9.451 L72.761,9.451 L73.32,7.501 L76.219,7.501 L76.791,9.451 Z M74.789,2.275 C74.789,2.275 74.997,3.289 75.166,3.874 L75.686,5.681 L73.853,5.681 L74.386,3.874 C74.555,3.289 74.763,2.275 74.763,2.275 L74.789,2.275 Z" id="Shape"></path>
                    <path d="M79.482,8.281 C79.482,8.281 80.691,9.607 82.875,9.607 C84.968,9.607 86.151,8.268 86.151,6.721 C86.151,3.783 81.965,3.991 81.965,2.821 C81.965,2.301 82.485,2.093 82.953,2.093 C84.071,2.093 85.007,2.912 85.007,2.912 L85.969,1.053 C85.969,1.053 84.981,0 82.979,0 C81.133,0 79.69,1.131 79.69,2.847 C79.69,5.707 83.876,5.668 83.876,6.773 C83.876,7.332 83.369,7.514 82.901,7.514 C81.731,7.514 80.678,6.552 80.678,6.552 L79.482,8.281 Z" id="Path"></path>
                    <polygon id="Path" points="89.492 9.451 91.767 9.451 91.767 2.106 94.588 2.106 94.588 0.156 86.671 0.156 86.671 2.106 89.492 2.106"></polygon>
                </g>
                <g id="podcasts_black_24dp">
                    <polygon id="Path" points="0 0 24 0 24 24 0 24"></polygon>
                    <path d="M14,12 C14,12.74 13.6,13.38 13,13.72 L13,22 L11,22 L11,13.72 C10.4,13.37 10,12.74 10,12 C10,10.9 10.9,10 12,10 C13.1,10 14,10.9 14,12 Z M12,6 C8.69,6 6,8.69 6,12 C6,13.74 6.75,15.31 7.94,16.4 L9.36,14.98 C8.53,14.25 8,13.19 8,12 C8,9.79 9.79,8 12,8 C14.21,8 16,9.79 16,12 C16,13.19 15.47,14.25 14.64,14.98 L16.06,16.4 C17.25,15.31 18,13.74 18,12 C18,8.69 15.31,6 12,6 Z M12,2 C6.48,2 2,6.48 2,12 C2,14.85 3.2,17.41 5.11,19.24 L6.53,17.82 C4.98,16.36 4,14.29 4,12 C4,7.59 7.59,4 12,4 C16.41,4 20,7.59 20,12 C20,14.29 19.02,16.36 17.47,17.82 L18.89,19.24 C20.8,17.41 22,14.85 22,12 C22,6.48 17.52,2 12,2 Z" id="Shape" fill="#138ABB" fill-rule="nonzero"></path>
                </g>
            </g>
        </g>
    </g>
</svg>