<?xml version="1.0" encoding="UTF-8"?>
<svg width="80px" height="16px" viewBox="0 0 80 16" version="1.1" xmlns="http://www.w3.org/2000/svg" xmlns:xlink="http://www.w3.org/1999/xlink">
    <title>Group 28</title>
    <g id="Core-design" stroke="none" stroke-width="1" fill="none" fill-rule="evenodd">
        <g id="On-Demand-course" transform="translate(-845.000000, -4791.000000)" fill="#FFBC00">
            <g id="Group-33" transform="translate(730.000000, 4714.000000)">
                <g id="Group-29" transform="translate(52.000000, 48.000000)">
                    <g id="Group-28" transform="translate(63.000000, 29.000000)">
                        <path d="M72,12 L69.0911901,13.5292518 C68.6023455,13.7862527 67.9977184,13.5983061 67.7407176,13.1094615 C67.6383785,12.9148011 67.6030638,12.691833 67.6402407,12.4750754 L68.1957739,9.23606798 L68.1957739,9.23606798 L65.8424973,6.94219021 C65.4470137,6.556689 65.4389214,5.92357573 65.8244226,5.52809216 C65.9779313,5.37060852 66.1790737,5.26812134 66.3967107,5.23649683 L69.648859,4.76393202 L69.648859,4.76393202 L71.1032639,1.81698575 C71.3476862,1.32173209 71.9473121,1.11839309 72.4425657,1.36281539 C72.6397783,1.46014562 72.7994058,1.61977315 72.8967361,1.81698575 L74.351141,4.76393202 L74.351141,4.76393202 L77.6032893,5.23649683 C78.1498342,5.31591445 78.5285156,5.8233573 78.449098,6.36990216 C78.4174735,6.58753919 78.3149863,6.7886816 78.1575027,6.94219021 L75.8042261,9.23606798 L75.8042261,9.23606798 L76.3597593,12.4750754 C76.4531203,13.0194118 76.0875325,13.5363677 75.5431961,13.6297287 C75.3264384,13.6669056 75.1034703,13.6315909 74.9088099,13.5292518 L72,12 L72,12 Z" id="Star-Copy-3"></path>
                        <path d="M56,12 L53.0911901,13.5292518 C52.6023455,13.7862527 51.9977184,13.5983061 51.7407176,13.1094615 C51.6383785,12.9148011 51.6030638,12.691833 51.6402407,12.4750754 L52.1957739,9.23606798 L52.1957739,9.23606798 L49.8424973,6.94219021 C49.4470137,6.556689 49.4389214,5.92357573 49.8244226,5.52809216 C49.9779313,5.37060852 50.1790737,5.26812134 50.3967107,5.23649683 L53.648859,4.76393202 L53.648859,4.76393202 L55.1032639,1.81698575 C55.3476862,1.32173209 55.9473121,1.11839309 56.4425657,1.36281539 C56.6397783,1.46014562 56.7994058,1.61977315 56.8967361,1.81698575 L58.351141,4.76393202 L58.351141,4.76393202 L61.6032893,5.23649683 C62.1498342,5.31591445 62.5285156,5.8233573 62.449098,6.36990216 C62.4174735,6.58753919 62.3149863,6.7886816 62.1575027,6.94219021 L59.8042261,9.23606798 L59.8042261,9.23606798 L60.3597593,12.4750754 C60.4531203,13.0194118 60.0875325,13.5363677 59.5431961,13.6297287 C59.3264384,13.6669056 59.1034703,13.6315909 58.9088099,13.5292518 L56,12 L56,12 Z" id="Star-Copy-2"></path>
                        <path d="M40,12 L37.0911901,13.5292518 C36.6023455,13.7862527 35.9977184,13.5983061 35.7407176,13.1094615 C35.6383785,12.9148011 35.6030638,12.691833 35.6402407,12.4750754 L36.1957739,9.23606798 L36.1957739,9.23606798 L33.8424973,6.94219021 C33.4470137,6.556689 33.4389214,5.92357573 33.8244226,5.52809216 C33.9779313,5.37060852 34.1790737,5.26812134 34.3967107,5.23649683 L37.648859,4.76393202 L37.648859,4.76393202 L39.1032639,1.81698575 C39.3476862,1.32173209 39.9473121,1.11839309 40.4425657,1.36281539 C40.6397783,1.46014562 40.7994058,1.61977315 40.8967361,1.81698575 L42.351141,4.76393202 L42.351141,4.76393202 L45.6032893,5.23649683 C46.1498342,5.31591445 46.5285156,5.8233573 46.449098,6.36990216 C46.4174735,6.58753919 46.3149863,6.7886816 46.1575027,6.94219021 L43.8042261,9.23606798 L43.8042261,9.23606798 L44.3597593,12.4750754 C44.4531203,13.0194118 44.0875325,13.5363677 43.5431961,13.6297287 C43.3264384,13.6669056 43.1034703,13.6315909 42.9088099,13.5292518 L40,12 L40,12 Z" id="Star-Copy"></path>
                        <path d="M24,12 L21.0911901,13.5292518 C20.6023455,13.7862527 19.9977184,13.5983061 19.7407176,13.1094615 C19.6383785,12.9148011 19.6030638,12.691833 19.6402407,12.4750754 L20.1957739,9.23606798 L20.1957739,9.23606798 L17.8424973,6.94219021 C17.4470137,6.556689 17.4389214,5.92357573 17.8244226,5.52809216 C17.9779313,5.37060852 18.1790737,5.26812134 18.3967107,5.23649683 L21.648859,4.76393202 L21.648859,4.76393202 L23.1032639,1.81698575 C23.3476862,1.32173209 23.9473121,1.11839309 24.4425657,1.36281539 C24.6397783,1.46014562 24.7994058,1.61977315 24.8967361,1.81698575 L26.351141,4.76393202 L26.351141,4.76393202 L29.6032893,5.23649683 C30.1498342,5.31591445 30.5285156,5.8233573 30.449098,6.36990216 C30.4174735,6.58753919 30.3149863,6.7886816 30.1575027,6.94219021 L27.8042261,9.23606798 L27.8042261,9.23606798 L28.3597593,12.4750754 C28.4531203,13.0194118 28.0875325,13.5363677 27.5431961,13.6297287 C27.3264384,13.6669056 27.1034703,13.6315909 26.9088099,13.5292518 L24,12 L24,12 Z" id="Star"></path>
                        <path d="M8,12 L5.09119013,13.5292518 C4.60234555,13.7862527 3.99771839,13.5983061 3.74071759,13.1094615 C3.63837852,12.9148011 3.60306384,12.691833 3.64024068,12.4750754 L4.19577393,9.23606798 L4.19577393,9.23606798 L1.84249732,6.94219021 C1.44701374,6.556689 1.43892144,5.92357573 1.82442265,5.52809216 C1.97793125,5.37060852 2.17907366,5.26812134 2.39671069,5.23649683 L5.64885899,4.76393202 L5.64885899,4.76393202 L7.10326392,1.81698575 C7.34768622,1.32173209 7.94731205,1.11839309 8.44256571,1.36281539 C8.63977832,1.46014562 8.79940584,1.61977315 8.89673608,1.81698575 L10.351141,4.76393202 L10.351141,4.76393202 L13.6032893,5.23649683 C14.1498342,5.31591445 14.5285156,5.8233573 14.449098,6.36990216 C14.4174735,6.58753919 14.3149863,6.7886816 14.1575027,6.94219021 L11.8042261,9.23606798 L11.8042261,9.23606798 L12.3597593,12.4750754 C12.4531203,13.0194118 12.0875325,13.5363677 11.5431961,13.6297287 C11.3264384,13.6669056 11.1034703,13.6315909 10.9088099,13.5292518 L8,12 L8,12 Z" id="Star"></path>
                    </g>
                </g>
            </g>
        </g>
    </g>
</svg>