<?xml version="1.0" encoding="UTF-8"?>
<svg width="198px" height="38px" viewBox="0 0 198 38" version="1.1" xmlns="http://www.w3.org/2000/svg" xmlns:xlink="http://www.w3.org/1999/xlink">
    <title>Group</title>
    <g id="Symbols" stroke="none" stroke-width="1" fill="none" fill-rule="evenodd">
        <g id="header" transform="translate(-151.000000, -18.000000)" fill="#1E7FA7">
            <g id="Group" transform="translate(151.000000, 18.000000)">
                <path d="M180.163718,8.13460247 C181.738638,8.13460247 183.208564,8.46028674 184.570496,9.11315613 C185.933927,9.76452467 187.247861,10.8391327 188.513797,12.3369801 L188.513797,8.67640902 L191.22416,8.67640902 L191.22416,25.4694103 C191.22416,28.4260832 190.966173,30.5888068 190.450199,31.9575813 C189.739235,33.8951775 188.507797,35.3855208 186.752885,36.4301118 C184.997974,37.4777045 182.88758,38 180.424705,38 C178.615796,38 176.992878,37.7433548 175.55445,37.2330661 C174.116023,36.7212765 172.944582,36.0353884 172.043127,35.173901 C171.138673,34.3124136 170.306215,33.0517003 169.545753,31.3962637 L172.488605,31.3962637 C173.288064,32.7905525 174.321512,33.8231368 175.587448,34.4940164 C176.854884,35.1663968 178.425305,35.5010861 180.298711,35.5010861 C182.145118,35.5010861 183.705039,35.1573917 184.978475,34.4700028 C186.250411,33.781113 187.157865,32.915123 187.700838,31.8720329 C188.24231,30.8304435 188.513797,29.1479916 188.513797,26.8246771 L188.513797,25.741064 C187.493848,27.0317943 186.247411,28.0223548 184.774485,28.7127454 C183.301559,29.403136 181.738638,29.7498321 180.085722,29.7498321 C178.147819,29.7498321 176.326911,29.2680596 174.621497,28.3060152 C172.917583,27.3439709 171.599149,26.050239 170.669196,24.4233185 C169.740743,22.796398 169.274267,21.0073858 169.274267,19.0577827 C169.274267,17.1081796 169.758742,15.2906513 170.727693,13.6051977 C171.696645,11.9212449 173.036077,10.5884909 174.747491,9.60543465 C176.458904,8.62538015 178.264813,8.13460247 180.163718,8.13460247 Z M88.9849641,8.13460247 C90.712877,8.13460247 92.2772982,8.50231052 93.6782275,9.23772661 C95.0791569,9.97464355 96.307595,11.0777677 97.3650417,12.5501007 L97.3650417,8.67640902 L100.037907,8.67640902 L100.037907,29.7498321 L97.3650417,29.7498321 L97.3650417,26.1267823 C96.2295989,27.5090643 94.9561631,28.5491528 93.5432343,29.2455468 C92.1303056,29.9434417 90.5838835,30.2916387 88.9069681,30.2916387 C85.9266183,30.2916387 83.3812466,29.2095264 81.270853,27.0468028 C79.1604594,24.8840792 78.1060126,22.2545914 78.1060126,19.1553379 C78.1060126,16.1206209 79.1709589,13.5256527 81.3008515,11.3689324 C83.4292442,9.21221217 85.9896151,8.13460247 88.9849641,8.13460247 Z M124.677465,8.13475256 C126.250885,8.13475256 127.648815,8.53547928 128.868254,9.33393104 C130.087692,10.1353845 130.987647,11.2129942 131.568117,12.5697618 C132.148588,13.9250286 132.439574,16.0367234 132.439574,18.9033453 L132.439574,29.7499822 L129.72921,29.7499822 L129.72921,19.6972945 C129.72921,17.2704214 129.628715,15.6495043 129.427725,14.8360441 C129.112741,13.4417552 128.511272,12.3926616 127.621816,11.6872625 C126.730861,10.9848651 125.56842,10.6336664 124.135992,10.6336664 C122.496575,10.6336664 121.029649,11.175473 119.732214,12.2590861 C118.43478,13.3442 117.579823,14.68746 117.165843,16.2888661 C116.909356,17.3349579 116.780363,19.2455389 116.780363,22.0221099 L116.780363,29.7499822 L114.07,29.7499822 L114.07,8.67655911 L116.780363,8.67655911 L116.780363,12.4526956 C117.863308,11.0073779 119.064748,9.92676646 120.380181,9.20936056 C121.697115,8.49195466 123.129543,8.13475256 124.677465,8.13475256 Z M5.74771025,1.25861211 C8.8570535,1.25861211 11.1009404,1.5452743 12.4748711,2.12009953 C13.8488019,2.69492476 14.9332472,3.62395039 15.7267072,4.91017813 C16.5201672,6.19490501 16.9176472,7.73477625 16.9176472,9.52829101 C16.9176472,11.518417 16.3971734,13.1708519 15.3577258,14.4870966 C14.3197781,15.8033414 12.9098492,16.7203602 11.1294389,17.2381532 C10.0839917,17.5338205 8.1805876,17.6824045 5.41922681,17.6824045 L5.41922681,29.7492318 L0,29.7492318 L0,1.25861211 L5.74771025,1.25861211 Z M26.2995242,1.25876219 L32.8991915,21.1300051 L39.5603557,1.25876219 L44.8370897,1.25876219 L49.6128489,29.7493819 L44.3721131,29.7493819 L41.319767,11.7557013 L35.270572,29.7493819 L30.4933128,29.7493819 L24.498115,11.7557013 L21.3722726,29.7493819 L16.088039,29.7493819 L21.0182904,1.25876219 L26.2995242,1.25876219 Z M58.7695873,0.852032071 L58.7695873,8.67595877 L63.0668707,8.67595877 L63.0668707,11.0202852 L58.7695873,11.0202852 L58.7695873,29.7493819 L56.059224,29.7493819 L56.059224,11.0202852 L52.3619104,11.0202852 L52.3619104,8.67595877 L56.059224,8.67595877 L56.059224,0.852032071 L58.7695873,0.852032071 Z M74.3518518,8.13475256 C75.0988142,8.13475256 75.8997738,8.37338757 76.7517308,8.85065761 L75.3388021,11.1364509 C74.7703307,10.8918125 74.2933548,10.7687428 73.9063743,10.7687428 C73.0019199,10.7687428 72.1319637,11.1394526 71.2920061,11.8823729 C70.4535483,12.6237924 69.8145805,13.7764446 69.3766026,15.3388285 C69.0406196,16.5410087 68.872628,18.9678818 68.872628,22.6224495 L68.872628,29.7499822 L66.1052675,29.7499822 L66.1052675,8.67655911 L68.872628,8.67655911 L68.872628,11.7563016 C69.6990864,10.5421146 70.5705424,9.63560172 71.4854963,9.03526206 C72.4019501,8.43492239 73.3574019,8.13475256 74.3518518,8.13475256 Z M108.437783,8.67640902 L108.437783,29.7498321 L105.72742,29.7498321 L105.72742,8.67640902 L108.437783,8.67640902 Z M140.551165,8.67640902 L140.551165,29.7498321 L137.840801,29.7498321 L137.840801,8.67640902 L140.551165,8.67640902 Z M156.789496,8.13475256 C158.362917,8.13475256 159.760846,8.53547928 160.980285,9.33393104 C162.199723,10.1353845 163.099678,11.2129942 163.680149,12.5697618 C164.260619,13.9250286 164.551605,16.0367234 164.551605,18.9033453 L164.551605,29.7499822 L161.841241,29.7499822 L161.841241,19.6972945 C161.841241,17.2704214 161.740746,15.6495043 161.539757,14.8360441 C161.224772,13.4417552 160.623303,12.3926616 159.732348,11.6872625 C158.841393,10.9848651 157.680451,10.6336664 156.248023,10.6336664 C154.608606,10.6336664 153.14168,11.175473 151.842745,12.2590861 C150.546811,13.3442 149.691854,14.68746 149.277875,16.2888661 C149.021388,17.3349579 148.892394,19.2455389 148.892394,22.0221099 L148.892394,29.7499822 L146.182031,29.7499822 L146.182031,8.67655911 L148.892394,8.67655911 L148.892394,12.4526956 C149.97534,11.0073779 151.175279,9.92676646 152.492213,9.20936056 C153.809146,8.49195466 155.241574,8.13475256 156.789496,8.13475256 Z M89.2069529,10.7490817 C87.6995289,10.7490817 86.3060992,11.1197915 85.0311634,11.8612109 C83.7547278,12.6041313 82.739279,13.6457206 81.9863169,14.9859789 C81.231855,16.3277381 80.855374,17.7460405 80.855374,19.2423871 C80.855374,20.7252261 81.2348548,22.1435286 81.9953165,23.4987954 C82.7557782,24.8525613 83.7772267,25.9061574 85.059662,26.6610846 C86.3420974,27.4160117 87.717528,27.7927248 89.1874539,27.7927248 C90.6693792,27.7927248 92.0748084,27.4190134 93.4022414,26.6715905 C94.7296745,25.9226668 95.751123,24.9110944 96.466587,23.6338718 C97.1820509,22.3566492 97.5405328,20.9188357 97.5405328,19.3189304 C97.5405328,16.8815514 96.7380733,14.8448991 95.1331542,13.2059718 C93.5282351,11.5685454 91.5528347,10.7490817 89.2069529,10.7490817 Z M180.5207,10.7490817 C178.984777,10.7490817 177.558349,11.1197915 176.241415,11.8627118 C174.927482,12.6056321 173.894034,13.6307121 173.145571,14.9424543 C172.397109,16.2526956 172.023628,17.6694972 172.023628,19.1928591 C172.023628,21.5056677 172.797589,23.4147478 174.345511,24.9261029 C175.894933,26.437458 177.900332,27.193886 180.364708,27.193886 C182.856082,27.193886 184.859981,26.4434614 186.374905,24.945614 C187.891328,23.4477665 188.65029,21.4786524 188.65029,19.0382717 C188.65029,17.4503732 188.300807,16.0335716 187.604843,14.786366 C186.908878,13.542162 185.921927,12.557605 184.642492,11.8341957 C183.364556,11.1107864 181.990626,10.7490817 180.5207,10.7490817 Z M6.94914968,6.54610372 L5.41922681,6.54610372 L5.41922681,12.3949129 L7.14114,12.3949129 C8.49707165,12.3949129 9.43902416,12.2988586 9.96849747,12.1037482 C10.4964709,11.9101386 10.9134498,11.5889569 11.2164346,11.1432047 C11.5194193,10.6944508 11.6709117,10.1541451 11.6709117,9.51928591 C11.6709117,8.41916347 11.2449331,7.61470832 10.3929761,7.10892215 C9.77500723,6.73521071 8.62606515,6.54610372 6.94914968,6.54610372 Z M194.569291,0.953189304 L195.218759,2.78722698 C195.299755,3.07839172 195.370251,3.35304712 195.466246,3.73876535 L195.479746,3.73876535 C195.577241,3.39357005 195.659736,3.07839172 195.740732,2.80073463 L196.3902,0.953189304 L197.467145,0.953189304 L197.755131,4.70531222 L197.009668,4.70531222 L196.871675,2.49756309 C196.858176,2.20789921 196.858176,1.84919626 196.846177,1.44846953 L196.802679,1.44846953 C196.708184,1.78015719 196.597189,2.22140685 196.486195,2.56660216 L195.811229,4.6497808 L195.038768,4.6497808 L194.362302,2.51107074 C194.293305,2.22140685 194.183811,1.78015719 194.101315,1.44846953 L194.059317,1.44846953 C194.059317,1.79366484 194.045818,2.15236779 194.032319,2.49756309 L193.894325,4.70531222 L193.175862,4.70531222 L193.453348,0.953189304 L194.569291,0.953189304 Z M192.956873,0.953189304 L192.956873,1.57304001 L191.756933,1.57304001 L191.756933,4.70531222 L191.011471,4.70531222 L191.011471,1.57304001 L189.811531,1.57304001 L189.811531,0.953189304 L192.956873,0.953189304 Z M107.072852,0 C107.689321,0 108.217295,0.219123978 108.653773,0.657371934 C109.090251,1.09712074 109.30774,1.62692049 109.30774,2.24527035 C109.30774,2.85311426 109.090251,3.37691062 108.653773,3.81515858 C108.217295,4.25340653 107.689321,4.47403136 107.072852,4.47403136 C106.469883,4.47403136 105.949409,4.25340653 105.511431,3.81515858 C105.074953,3.37691062 104.855964,2.85311426 104.855964,2.24527035 C104.855964,1.62692049 105.074953,1.09712074 105.511431,0.657371934 C105.949409,0.219123978 106.469883,0 107.072852,0 Z M139.184733,0 C139.801202,0 140.329176,0.219123978 140.765654,0.657371934 C141.202132,1.09712074 141.419621,1.62692049 141.419621,2.24527035 C141.419621,2.85311426 141.202132,3.37691062 140.765654,3.81515858 C140.329176,4.25340653 139.801202,4.47403136 139.184733,4.47403136 C138.581764,4.47403136 138.05979,4.25340653 137.623312,3.81515858 C137.186834,3.37691062 136.969345,2.85311426 136.969345,2.24527035 C136.969345,1.62692049 137.186834,1.09712074 137.623312,0.657371934 C138.05979,0.219123978 138.581764,0 139.184733,0 Z" id="Combined-Shape"></path>
            </g>
        </g>
    </g>
</svg>