<?xml version="1.0" encoding="UTF-8"?>
<svg width="17px" height="15px" viewBox="0 0 17 15" version="1.1" xmlns="http://www.w3.org/2000/svg" xmlns:xlink="http://www.w3.org/1999/xlink">
    <title>Combined Shape</title>
    <g id="About" stroke="none" stroke-width="1" fill="none" fill-rule="evenodd">
        <g id="Our-Books-and-Websites" transform="translate(-922.000000, -439.000000)" fill="#FFFFFF">
            <g id="Group-2" transform="translate(922.000000, 436.000000)">
                <g id="Group-3" transform="translate(0.000000, 3.000000)">
                    <path d="M15.8227269,0.256789281 C16.6908786,0.57197901 16.3228182,1.15671809 16.1291585,1.71615162 C15.6282112,3.16331306 15.1689917,4.62809801 14.6220369,6.05515058 C14.3481315,6.7689028 14.3750941,7.13312205 15.1056511,7.54320761 C16.6029293,8.38303572 17.2994621,10.2606175 16.8791885,11.8670684 C16.3814511,13.7679223 14.9241888,14.9968234 13.1628487,15 C11.4676311,15.0031497 10.0140066,13.8928685 9.56077876,12.214116 C9.45549637,11.8234615 9.44329903,11.4043383 9.35,10.718151 C9.54109181,10.1325082 9.71271066,9.27867163 10.082269,8.53419123 C11.3878133,5.90422102 12.8078416,3.33706281 14.0853535,0.692632282 C14.5788112,-0.328627628 15.1533706,0.0139011385 15.8227269,0.256789281 Z M5.25810632,0 C7.42509718,0.799247225 7.16914996,0.620570969 6.55864759,2.50146759 C6.15879779,3.7327946 5.74702835,4.96122175 5.29429869,6.17247278 C5.03228329,6.87312462 5.11897159,7.25679898 5.82916552,7.66590291 C7.35487965,8.54500794 7.83426597,10.0190313 7.58937151,11.7549347 C7.38066942,13.2336424 6.18675477,14.5410351 4.71023624,14.8789809 C3.12405701,15.24191 1.74657987,14.7946617 0.774370553,13.4538091 C-0.315734861,11.9512332 -0.154494617,10.3029949 0.63653615,8.72970699 C1.74679659,6.52157183 2.9329093,4.35381171 4.08933127,2.17021386 C4.46707555,1.45751643 4.8539221,0.749949532 5.25810632,0 Z" id="Combined-Shape"></path>
                </g>
            </g>
        </g>
    </g>
</svg>