<?xml version="1.0" encoding="UTF-8"?>
<svg width="22px" height="23px" viewBox="0 0 22 23" version="1.1" xmlns="http://www.w3.org/2000/svg" xmlns:xlink="http://www.w3.org/1999/xlink">
    <title>Group 12</title>
    <g id="Core-design" stroke="none" stroke-width="1" fill="none" fill-rule="evenodd">
        <g id="Live-virtual-classes" transform="translate(-882.000000, -5681.000000)">
            <g id="Group-13" transform="translate(883.000000, 5677.000000)">
                <g id="Group-12" transform="translate(0.000000, 5.000000)">
                    <ellipse id="Oval" fill-opacity="0.171465253" fill="#00B6FF" cx="10.0073915" cy="11.2273776" rx="7.02995404" ry="7"></ellipse>
                    <g id="Group-472" stroke="#265A6E" stroke-linecap="round" stroke-linejoin="round">
                        <path d="M15.5457,19.8257 C13.9587,20.8847 12.0517,21.5017 10.0007,21.5017 C7.6157,21.5017 5.4257,20.6667 3.7067,19.2737" id="Stroke-5416"></path>
                        <path d="M13.3464,2.0733 C17.2254,3.4493 20.0014,7.1513 20.0014,11.5013 C20.0014,12.8623 19.7304,14.1603 19.2374,15.3433" id="Stroke-5419"></path>
                        <path d="M0.449,14.4722 C0.157,13.5342 0,12.5352 0,11.5012 C0,6.8172 3.22,2.8852 7.567,1.7982" id="Stroke-5422"></path>
                        <polyline id="Stroke-5424" points="5.9382 11.8252 8.5682 14.6482 13.4452 8.7432"></polyline>
                        <path d="M10.0007,3 L10.0007,3 C9.1727,3 8.5007,2.329 8.5007,1.5 C8.5007,0.672 9.1727,9.09494702e-13 10.0007,9.09494702e-13 C10.8297,9.09494702e-13 11.5007,0.672 11.5007,1.5 C11.5007,2.329 10.8297,3 10.0007,3 Z" id="Stroke-5425"></path>
                        <path d="M18.0818,19.0015 L18.0818,19.0015 C17.2528,19.0015 16.5818,18.3305 16.5818,17.5015 C16.5818,16.6735 17.2528,16.0015 18.0818,16.0015 C18.9098,16.0015 19.5818,16.6735 19.5818,17.5015 C19.5818,18.3305 18.9098,19.0015 18.0818,19.0015 Z" id="Stroke-5426"></path>
                        <path d="M1.9851,19.0015 L1.9851,19.0015 C1.1571,19.0015 0.4851,18.3305 0.4851,17.5015 C0.4851,16.6735 1.1571,16.0015 1.9851,16.0015 C2.8131,16.0015 3.4851,16.6735 3.4851,17.5015 C3.4851,18.3305 2.8131,19.0015 1.9851,19.0015 Z" id="Stroke-5427"></path>
                    </g>
                </g>
            </g>
        </g>
    </g>
</svg>