<?xml version="1.0" encoding="UTF-8"?>
<svg width="319px" height="38px" viewBox="0 0 319 38" version="1.1" xmlns="http://www.w3.org/2000/svg" xmlns:xlink="http://www.w3.org/1999/xlink">
    <title>Group 2</title>
    <g id="Symbols" stroke="none" stroke-width="1" fill="none" fill-rule="evenodd">
        <g id="header" transform="translate(-151.000000, -18.000000)">
            <g id="Group-2" transform="translate(151.000000, 18.000000)">
                <g id="Group" fill="#1E7FA7">
                    <path d="M180.163718,8.13460247 C181.738638,8.13460247 183.208564,8.46028674 184.570496,9.11315613 C185.933927,9.76452467 187.247861,10.8391327 188.513797,12.3369801 L188.513797,8.67640902 L191.22416,8.67640902 L191.22416,25.4694103 C191.22416,28.4260832 190.966173,30.5888068 190.450199,31.9575813 C189.739235,33.8951775 188.507797,35.3855208 186.752885,36.4301118 C184.997974,37.4777045 182.88758,38 180.424705,38 C178.615796,38 176.992878,37.7433548 175.55445,37.2330661 C174.116023,36.7212765 172.944582,36.0353884 172.043127,35.173901 C171.138673,34.3124136 170.306215,33.0517003 169.545753,31.3962637 L172.488605,31.3962637 C173.288064,32.7905525 174.321512,33.8231368 175.587448,34.4940164 C176.854884,35.1663968 178.425305,35.5010861 180.298711,35.5010861 C182.145118,35.5010861 183.705039,35.1573917 184.978475,34.4700028 C186.250411,33.781113 187.157865,32.915123 187.700838,31.8720329 C188.24231,30.8304435 188.513797,29.1479916 188.513797,26.8246771 L188.513797,25.741064 C187.493848,27.0317943 186.247411,28.0223548 184.774485,28.7127454 C183.301559,29.403136 181.738638,29.7498321 180.085722,29.7498321 C178.147819,29.7498321 176.326911,29.2680596 174.621497,28.3060152 C172.917583,27.3439709 171.599149,26.050239 170.669196,24.4233185 C169.740743,22.796398 169.274267,21.0073858 169.274267,19.0577827 C169.274267,17.1081796 169.758742,15.2906513 170.727693,13.6051977 C171.696645,11.9212449 173.036077,10.5884909 174.747491,9.60543465 C176.458904,8.62538015 178.264813,8.13460247 180.163718,8.13460247 Z M88.9849641,8.13460247 C90.712877,8.13460247 92.2772982,8.50231052 93.6782275,9.23772661 C95.0791569,9.97464355 96.307595,11.0777677 97.3650417,12.5501007 L97.3650417,8.67640902 L100.037907,8.67640902 L100.037907,29.7498321 L97.3650417,29.7498321 L97.3650417,26.1267823 C96.2295989,27.5090643 94.9561631,28.5491528 93.5432343,29.2455468 C92.1303056,29.9434417 90.5838835,30.2916387 88.9069681,30.2916387 C85.9266183,30.2916387 83.3812466,29.2095264 81.270853,27.0468028 C79.1604594,24.8840792 78.1060126,22.2545914 78.1060126,19.1553379 C78.1060126,16.1206209 79.1709589,13.5256527 81.3008515,11.3689324 C83.4292442,9.21221217 85.9896151,8.13460247 88.9849641,8.13460247 Z M124.677465,8.13475256 C126.250885,8.13475256 127.648815,8.53547928 128.868254,9.33393104 C130.087692,10.1353845 130.987647,11.2129942 131.568117,12.5697618 C132.148588,13.9250286 132.439574,16.0367234 132.439574,18.9033453 L132.439574,29.7499822 L129.72921,29.7499822 L129.72921,19.6972945 C129.72921,17.2704214 129.628715,15.6495043 129.427725,14.8360441 C129.112741,13.4417552 128.511272,12.3926616 127.621816,11.6872625 C126.730861,10.9848651 125.56842,10.6336664 124.135992,10.6336664 C122.496575,10.6336664 121.029649,11.175473 119.732214,12.2590861 C118.43478,13.3442 117.579823,14.68746 117.165843,16.2888661 C116.909356,17.3349579 116.780363,19.2455389 116.780363,22.0221099 L116.780363,29.7499822 L114.07,29.7499822 L114.07,8.67655911 L116.780363,8.67655911 L116.780363,12.4526956 C117.863308,11.0073779 119.064748,9.92676646 120.380181,9.20936056 C121.697115,8.49195466 123.129543,8.13475256 124.677465,8.13475256 Z M5.74771025,1.25861211 C8.8570535,1.25861211 11.1009404,1.5452743 12.4748711,2.12009953 C13.8488019,2.69492476 14.9332472,3.62395039 15.7267072,4.91017813 C16.5201672,6.19490501 16.9176472,7.73477625 16.9176472,9.52829101 C16.9176472,11.518417 16.3971734,13.1708519 15.3577258,14.4870966 C14.3197781,15.8033414 12.9098492,16.7203602 11.1294389,17.2381532 C10.0839917,17.5338205 8.1805876,17.6824045 5.41922681,17.6824045 L5.41922681,29.7492318 L0,29.7492318 L0,1.25861211 L5.74771025,1.25861211 Z M26.2995242,1.25876219 L32.8991915,21.1300051 L39.5603557,1.25876219 L44.8370897,1.25876219 L49.6128489,29.7493819 L44.3721131,29.7493819 L41.319767,11.7557013 L35.270572,29.7493819 L30.4933128,29.7493819 L24.498115,11.7557013 L21.3722726,29.7493819 L16.088039,29.7493819 L21.0182904,1.25876219 L26.2995242,1.25876219 Z M58.7695873,0.852032071 L58.7695873,8.67595877 L63.0668707,8.67595877 L63.0668707,11.0202852 L58.7695873,11.0202852 L58.7695873,29.7493819 L56.059224,29.7493819 L56.059224,11.0202852 L52.3619104,11.0202852 L52.3619104,8.67595877 L56.059224,8.67595877 L56.059224,0.852032071 L58.7695873,0.852032071 Z M74.3518518,8.13475256 C75.0988142,8.13475256 75.8997738,8.37338757 76.7517308,8.85065761 L75.3388021,11.1364509 C74.7703307,10.8918125 74.2933548,10.7687428 73.9063743,10.7687428 C73.0019199,10.7687428 72.1319637,11.1394526 71.2920061,11.8823729 C70.4535483,12.6237924 69.8145805,13.7764446 69.3766026,15.3388285 C69.0406196,16.5410087 68.872628,18.9678818 68.872628,22.6224495 L68.872628,29.7499822 L66.1052675,29.7499822 L66.1052675,8.67655911 L68.872628,8.67655911 L68.872628,11.7563016 C69.6990864,10.5421146 70.5705424,9.63560172 71.4854963,9.03526206 C72.4019501,8.43492239 73.3574019,8.13475256 74.3518518,8.13475256 Z M108.437783,8.67640902 L108.437783,29.7498321 L105.72742,29.7498321 L105.72742,8.67640902 L108.437783,8.67640902 Z M140.551165,8.67640902 L140.551165,29.7498321 L137.840801,29.7498321 L137.840801,8.67640902 L140.551165,8.67640902 Z M156.789496,8.13475256 C158.362917,8.13475256 159.760846,8.53547928 160.980285,9.33393104 C162.199723,10.1353845 163.099678,11.2129942 163.680149,12.5697618 C164.260619,13.9250286 164.551605,16.0367234 164.551605,18.9033453 L164.551605,29.7499822 L161.841241,29.7499822 L161.841241,19.6972945 C161.841241,17.2704214 161.740746,15.6495043 161.539757,14.8360441 C161.224772,13.4417552 160.623303,12.3926616 159.732348,11.6872625 C158.841393,10.9848651 157.680451,10.6336664 156.248023,10.6336664 C154.608606,10.6336664 153.14168,11.175473 151.842745,12.2590861 C150.546811,13.3442 149.691854,14.68746 149.277875,16.2888661 C149.021388,17.3349579 148.892394,19.2455389 148.892394,22.0221099 L148.892394,29.7499822 L146.182031,29.7499822 L146.182031,8.67655911 L148.892394,8.67655911 L148.892394,12.4526956 C149.97534,11.0073779 151.175279,9.92676646 152.492213,9.20936056 C153.809146,8.49195466 155.241574,8.13475256 156.789496,8.13475256 Z M89.2069529,10.7490817 C87.6995289,10.7490817 86.3060992,11.1197915 85.0311634,11.8612109 C83.7547278,12.6041313 82.739279,13.6457206 81.9863169,14.9859789 C81.231855,16.3277381 80.855374,17.7460405 80.855374,19.2423871 C80.855374,20.7252261 81.2348548,22.1435286 81.9953165,23.4987954 C82.7557782,24.8525613 83.7772267,25.9061574 85.059662,26.6610846 C86.3420974,27.4160117 87.717528,27.7927248 89.1874539,27.7927248 C90.6693792,27.7927248 92.0748084,27.4190134 93.4022414,26.6715905 C94.7296745,25.9226668 95.751123,24.9110944 96.466587,23.6338718 C97.1820509,22.3566492 97.5405328,20.9188357 97.5405328,19.3189304 C97.5405328,16.8815514 96.7380733,14.8448991 95.1331542,13.2059718 C93.5282351,11.5685454 91.5528347,10.7490817 89.2069529,10.7490817 Z M180.5207,10.7490817 C178.984777,10.7490817 177.558349,11.1197915 176.241415,11.8627118 C174.927482,12.6056321 173.894034,13.6307121 173.145571,14.9424543 C172.397109,16.2526956 172.023628,17.6694972 172.023628,19.1928591 C172.023628,21.5056677 172.797589,23.4147478 174.345511,24.9261029 C175.894933,26.437458 177.900332,27.193886 180.364708,27.193886 C182.856082,27.193886 184.859981,26.4434614 186.374905,24.945614 C187.891328,23.4477665 188.65029,21.4786524 188.65029,19.0382717 C188.65029,17.4503732 188.300807,16.0335716 187.604843,14.786366 C186.908878,13.542162 185.921927,12.557605 184.642492,11.8341957 C183.364556,11.1107864 181.990626,10.7490817 180.5207,10.7490817 Z M6.94914968,6.54610372 L5.41922681,6.54610372 L5.41922681,12.3949129 L7.14114,12.3949129 C8.49707165,12.3949129 9.43902416,12.2988586 9.96849747,12.1037482 C10.4964709,11.9101386 10.9134498,11.5889569 11.2164346,11.1432047 C11.5194193,10.6944508 11.6709117,10.1541451 11.6709117,9.51928591 C11.6709117,8.41916347 11.2449331,7.61470832 10.3929761,7.10892215 C9.77500723,6.73521071 8.62606515,6.54610372 6.94914968,6.54610372 Z M194.569291,0.953189304 L195.218759,2.78722698 C195.299755,3.07839172 195.370251,3.35304712 195.466246,3.73876535 L195.479746,3.73876535 C195.577241,3.39357005 195.659736,3.07839172 195.740732,2.80073463 L196.3902,0.953189304 L197.467145,0.953189304 L197.755131,4.70531222 L197.009668,4.70531222 L196.871675,2.49756309 C196.858176,2.20789921 196.858176,1.84919626 196.846177,1.44846953 L196.802679,1.44846953 C196.708184,1.78015719 196.597189,2.22140685 196.486195,2.56660216 L195.811229,4.6497808 L195.038768,4.6497808 L194.362302,2.51107074 C194.293305,2.22140685 194.183811,1.78015719 194.101315,1.44846953 L194.059317,1.44846953 C194.059317,1.79366484 194.045818,2.15236779 194.032319,2.49756309 L193.894325,4.70531222 L193.175862,4.70531222 L193.453348,0.953189304 L194.569291,0.953189304 Z M192.956873,0.953189304 L192.956873,1.57304001 L191.756933,1.57304001 L191.756933,4.70531222 L191.011471,4.70531222 L191.011471,1.57304001 L189.811531,1.57304001 L189.811531,0.953189304 L192.956873,0.953189304 Z M107.072852,0 C107.689321,0 108.217295,0.219123978 108.653773,0.657371934 C109.090251,1.09712074 109.30774,1.62692049 109.30774,2.24527035 C109.30774,2.85311426 109.090251,3.37691062 108.653773,3.81515858 C108.217295,4.25340653 107.689321,4.47403136 107.072852,4.47403136 C106.469883,4.47403136 105.949409,4.25340653 105.511431,3.81515858 C105.074953,3.37691062 104.855964,2.85311426 104.855964,2.24527035 C104.855964,1.62692049 105.074953,1.09712074 105.511431,0.657371934 C105.949409,0.219123978 106.469883,0 107.072852,0 Z M139.184733,0 C139.801202,0 140.329176,0.219123978 140.765654,0.657371934 C141.202132,1.09712074 141.419621,1.62692049 141.419621,2.24527035 C141.419621,2.85311426 141.202132,3.37691062 140.765654,3.81515858 C140.329176,4.25340653 139.801202,4.47403136 139.184733,4.47403136 C138.581764,4.47403136 138.05979,4.25340653 137.623312,3.81515858 C137.186834,3.37691062 136.969345,2.85311426 136.969345,2.24527035 C136.969345,1.62692049 137.186834,1.09712074 137.623312,0.657371934 C138.05979,0.219123978 138.581764,0 139.184733,0 Z" id="Combined-Shape"></path>
                </g>
                <g id="Power-your-career." transform="translate(201.129883, 18.662598)" fill="#000000" fill-rule="nonzero">
                    <path d="M0,0 L1.85986328,0 C2.92626953,0 3.64567057,0.0465494792 4.01806641,0.139648438 C4.55126953,0.270833333 4.98714193,0.540608724 5.32568359,0.948974609 C5.66422526,1.35734049 5.83349609,1.87044271 5.83349609,2.48828125 C5.83349609,3.11035156 5.66845703,3.62345378 5.33837891,4.02758789 C5.00830078,4.43172201 4.55338542,4.70361328 3.97363281,4.84326172 C3.55045573,4.94482422 2.75911458,4.99560547 1.59960938,4.99560547 L0.933105469,4.99560547 L0.933105469,9.33740234 L0,9.33740234 L0,0 Z M0.933105469,0.907714844 L0.933105469,4.08154297 L2.51367188,4.10058594 C3.15266927,4.10058594 3.62027995,4.04239909 3.91650391,3.92602539 C4.21272786,3.80965169 4.44547526,3.62133789 4.61474609,3.36108398 C4.78401693,3.10083008 4.86865234,2.80989583 4.86865234,2.48828125 C4.86865234,2.17513021 4.78401693,1.88842773 4.61474609,1.62817383 C4.44547526,1.36791992 4.22224935,1.18277995 3.94506836,1.07275391 C3.66788737,0.962727865 3.21402995,0.907714844 2.58349609,0.907714844 L0.933105469,0.907714844 Z" id="Shape"></path>
                    <path d="M10.8227539,2.25341797 C11.8849284,2.25341797 12.7651367,2.63850911 13.4633789,3.40869141 C14.0981445,4.11116536 14.4155273,4.94270833 14.4155273,5.90332031 C14.4155273,6.86816406 14.0801595,7.7113444 13.4094238,8.43286133 C12.7386882,9.15437826 11.8764648,9.51513672 10.8227539,9.51513672 C9.7648112,9.51513672 8.90047201,9.15437826 8.22973633,8.43286133 C7.55900065,7.7113444 7.22363281,6.86816406 7.22363281,5.90332031 C7.22363281,4.9469401 7.54101562,4.11751302 8.17578125,3.41503906 C8.87402344,2.640625 9.75634766,2.25341797 10.8227539,2.25341797 Z M10.8227539,3.12304688 C10.0864258,3.12304688 9.45377604,3.39599609 8.92480469,3.94189453 C8.39583333,4.48779297 8.13134766,5.14794922 8.13134766,5.92236328 C8.13134766,6.42171224 8.25195312,6.88720703 8.49316406,7.31884766 C8.734375,7.75048828 9.06022135,8.08374023 9.47070312,8.31860352 C9.8811849,8.5534668 10.3318685,8.67089844 10.8227539,8.67089844 C11.3136393,8.67089844 11.7643229,8.5534668 12.1748047,8.31860352 C12.5852865,8.08374023 12.9111328,7.75048828 13.1523438,7.31884766 C13.3935547,6.88720703 13.5141602,6.42171224 13.5141602,5.92236328 C13.5141602,5.14794922 13.2486165,4.48779297 12.7175293,3.94189453 C12.1864421,3.39599609 11.5548503,3.12304688 10.8227539,3.12304688 Z" id="Shape"></path>
                    <polygon id="Path" points="15.1328125 2.43115234 16.046875 2.43115234 18.1606445 7.44580078 20.3759766 2.43115234 20.534668 2.43115234 22.7436523 7.44580078 24.8955078 2.43115234 25.8222656 2.43115234 22.8261719 9.33740234 22.6547852 9.33740234 20.4584961 4.39257812 18.2431641 9.33740234 18.078125 9.33740234"></polygon>
                    <path d="M32.684082,7.04589844 L33.4331055,7.43945312 C33.1876628,7.921875 32.9041341,8.31119792 32.5825195,8.60742188 C32.2609049,8.90364583 31.8990885,9.12898763 31.4970703,9.28344727 C31.0950521,9.4379069 30.6401367,9.51513672 30.1323242,9.51513672 C29.0066732,9.51513672 28.1264648,9.14591471 27.4916992,8.4074707 C26.8569336,7.66902669 26.5395508,6.8343099 26.5395508,5.90332031 C26.5395508,5.02734375 26.8082682,4.24658203 27.3457031,3.56103516 C28.0270182,2.68929036 28.9389648,2.25341797 30.081543,2.25341797 C31.2579753,2.25341797 32.1974284,2.69986979 32.8999023,3.59277344 C33.3992513,4.22330729 33.6531576,5.01041667 33.6616211,5.95410156 L27.4536133,5.95410156 C27.4705404,6.75813802 27.7265625,7.41723633 28.2216797,7.93139648 C28.7167969,8.44555664 29.3282878,8.70263672 30.0561523,8.70263672 C30.4073893,8.70263672 30.7491048,8.64127604 31.0812988,8.51855469 C31.4134928,8.39583333 31.6959635,8.23291016 31.9287109,8.02978516 C32.1614583,7.82666016 32.4132487,7.49869792 32.684082,7.04589844 Z M32.684082,5.18603516 C32.5655924,4.71207682 32.3931478,4.33333333 32.166748,4.04980469 C31.9403483,3.76627604 31.6409505,3.53776042 31.2685547,3.36425781 C30.8961589,3.19075521 30.5047201,3.10400391 30.0942383,3.10400391 C29.4171549,3.10400391 28.8352865,3.3219401 28.3486328,3.7578125 C27.9931641,4.07519531 27.7244466,4.55126953 27.5424805,5.18603516 L32.684082,5.18603516 Z" id="Shape"></path>
                    <path d="M34.9819336,2.43115234 L35.8896484,2.43115234 L35.8896484,3.44042969 C36.1604818,3.04264323 36.4461263,2.74536133 36.746582,2.54858398 C37.0470378,2.35180664 37.3601888,2.25341797 37.6860352,2.25341797 C37.9314779,2.25341797 38.1938477,2.33170573 38.4731445,2.48828125 L38.0097656,3.23730469 C37.8235677,3.15690104 37.6669922,3.11669922 37.5400391,3.11669922 C37.2438151,3.11669922 36.9581706,3.23836263 36.6831055,3.48168945 C36.4080404,3.72501628 36.1985677,4.10270182 36.0546875,4.61474609 C35.9446615,5.00830078 35.8896484,5.8038737 35.8896484,7.00146484 L35.8896484,9.33740234 L34.9819336,9.33740234 L34.9819336,2.43115234 Z" id="Path"></path>
                    <polygon id="Path" points="42.0849609 2.43115234 43.0244141 2.43115234 45.3984375 7.75048828 47.7026367 2.43115234 48.6484375 2.43115234 44.5288086 11.8637695 43.5893555 11.8637695 44.9223633 8.81689453"></polygon>
                    <path d="M53.0664062,2.25341797 C54.1285807,2.25341797 55.0087891,2.63850911 55.7070312,3.40869141 C56.3417969,4.11116536 56.6591797,4.94270833 56.6591797,5.90332031 C56.6591797,6.86816406 56.3238118,7.7113444 55.6530762,8.43286133 C54.9823405,9.15437826 54.1201172,9.51513672 53.0664062,9.51513672 C52.0084635,9.51513672 51.1441243,9.15437826 50.4733887,8.43286133 C49.802653,7.7113444 49.4672852,6.86816406 49.4672852,5.90332031 C49.4672852,4.9469401 49.784668,4.11751302 50.4194336,3.41503906 C51.1176758,2.640625 52,2.25341797 53.0664062,2.25341797 Z M53.0664062,3.12304688 C52.3300781,3.12304688 51.6974284,3.39599609 51.168457,3.94189453 C50.6394857,4.48779297 50.375,5.14794922 50.375,5.92236328 C50.375,6.42171224 50.4956055,6.88720703 50.7368164,7.31884766 C50.9780273,7.75048828 51.3038737,8.08374023 51.7143555,8.31860352 C52.1248372,8.5534668 52.5755208,8.67089844 53.0664062,8.67089844 C53.5572917,8.67089844 54.0079753,8.5534668 54.418457,8.31860352 C54.8289388,8.08374023 55.1547852,7.75048828 55.3959961,7.31884766 C55.637207,6.88720703 55.7578125,6.42171224 55.7578125,5.92236328 C55.7578125,5.14794922 55.4922689,4.48779297 54.9611816,3.94189453 C54.4300944,3.39599609 53.7985026,3.12304688 53.0664062,3.12304688 Z" id="Shape"></path>
                    <path d="M58.1953125,2.43115234 L59.090332,2.43115234 L59.090332,5.65576172 C59.090332,6.44287109 59.1326497,6.98453776 59.2172852,7.28076172 C59.3442383,7.7039388 59.5865072,8.0382487 59.9440918,8.28369141 C60.3016764,8.52913411 60.7280273,8.65185547 61.2231445,8.65185547 C61.7182617,8.65185547 62.138265,8.53230794 62.4831543,8.29321289 C62.8280436,8.05411784 63.0660807,7.73990885 63.1972656,7.35058594 C63.2861328,7.08398438 63.3305664,6.51904297 63.3305664,5.65576172 L63.3305664,2.43115234 L64.2382812,2.43115234 L64.2382812,5.82080078 C64.2382812,6.77294922 64.1271973,7.49023438 63.9050293,7.97265625 C63.6828613,8.45507812 63.3485514,8.83276367 62.9020996,9.10571289 C62.4556478,9.37866211 61.8959961,9.51513672 61.2231445,9.51513672 C60.550293,9.51513672 59.9885254,9.37866211 59.5378418,9.10571289 C59.0871582,8.83276367 58.7507324,8.4519043 58.5285645,7.96313477 C58.3063965,7.47436523 58.1953125,6.73909505 58.1953125,5.75732422 L58.1953125,2.43115234 Z" id="Path"></path>
                    <path d="M65.8759766,2.43115234 L66.7836914,2.43115234 L66.7836914,3.44042969 C67.0545247,3.04264323 67.3401693,2.74536133 67.640625,2.54858398 C67.9410807,2.35180664 68.2542318,2.25341797 68.5800781,2.25341797 C68.8255208,2.25341797 69.0878906,2.33170573 69.3671875,2.48828125 L68.9038086,3.23730469 C68.7176107,3.15690104 68.5610352,3.11669922 68.434082,3.11669922 C68.1378581,3.11669922 67.8522135,3.23836263 67.5771484,3.48168945 C67.3020833,3.72501628 67.0926107,4.10270182 66.9487305,4.61474609 C66.8387044,5.00830078 66.7836914,5.8038737 66.7836914,7.00146484 L66.7836914,9.33740234 L65.8759766,9.33740234 L65.8759766,2.43115234 Z" id="Path"></path>
                    <path d="M80.4248047,3.86572266 L79.7202148,4.30371094 C79.1108398,3.49544271 78.2792969,3.09130859 77.2255859,3.09130859 C76.3834635,3.09130859 75.6841634,3.36214193 75.1276855,3.90380859 C74.5712077,4.44547526 74.2929688,5.10351562 74.2929688,5.87792969 C74.2929688,6.38151042 74.4209798,6.85546875 74.677002,7.29980469 C74.9330241,7.74414062 75.2842611,8.08902995 75.7307129,8.33447266 C76.1771647,8.57991536 76.6775716,8.70263672 77.2319336,8.70263672 C78.2475586,8.70263672 79.0769857,8.2985026 79.7202148,7.49023438 L80.4248047,7.95361328 C80.0947266,8.44873047 79.6514486,8.83276367 79.0949707,9.10571289 C78.5384928,9.37866211 77.9047852,9.51513672 77.1938477,9.51513672 C76.1020508,9.51513672 75.1964518,9.16813151 74.4770508,8.47412109 C73.7576497,7.78011068 73.3979492,6.9358724 73.3979492,5.94140625 C73.3979492,5.27278646 73.5661621,4.65177409 73.9025879,4.07836914 C74.2390137,3.50496419 74.7013346,3.05745443 75.2895508,2.73583984 C75.8777669,2.41422526 76.5358073,2.25341797 77.2636719,2.25341797 C77.7207031,2.25341797 78.1618652,2.32324219 78.5871582,2.46289062 C79.0124512,2.60253906 79.3732096,2.78450521 79.6694336,3.00878906 C79.9656576,3.23307292 80.2174479,3.51871745 80.4248047,3.86572266 Z" id="Path"></path>
                    <path d="M89.0131836,2.43115234 L89.0131836,9.33740234 L88.137207,9.33740234 L88.137207,8.15039062 C87.7648112,8.6031901 87.3469238,8.94384766 86.8835449,9.17236328 C86.420166,9.40087891 85.9134115,9.51513672 85.3632812,9.51513672 C84.3857422,9.51513672 83.5510254,9.16072591 82.8591309,8.4519043 C82.1672363,7.74308268 81.8212891,6.88085938 81.8212891,5.86523438 C81.8212891,4.87076823 82.1704102,4.02018229 82.8686523,3.31347656 C83.5668945,2.60677083 84.406901,2.25341797 85.3886719,2.25341797 C85.9557292,2.25341797 86.4688314,2.37402344 86.9279785,2.61523438 C87.3871257,2.85644531 87.7902018,3.21826172 88.137207,3.70068359 L88.137207,2.43115234 L89.0131836,2.43115234 Z M85.4584961,3.11035156 C84.9633789,3.11035156 84.5063477,3.23201497 84.0874023,3.4753418 C83.668457,3.71866862 83.3352051,4.06038411 83.0876465,4.50048828 C82.8400879,4.94059245 82.7163086,5.40608724 82.7163086,5.89697266 C82.7163086,6.3836263 82.8411458,6.84912109 83.0908203,7.29345703 C83.3404948,7.73779297 83.6758626,8.08374023 84.0969238,8.33129883 C84.517985,8.57885742 84.9697266,8.70263672 85.4521484,8.70263672 C85.9388021,8.70263672 86.4000651,8.57991536 86.8359375,8.33447266 C87.2718099,8.08902995 87.6071777,7.75683594 87.842041,7.33789062 C88.0769043,6.91894531 88.1943359,6.44710286 88.1943359,5.92236328 C88.1943359,5.12255859 87.9309082,4.4539388 87.4040527,3.91650391 C86.8771973,3.37906901 86.2286784,3.11035156 85.4584961,3.11035156 Z" id="Shape"></path>
                    <path d="M90.6762695,2.43115234 L91.5839844,2.43115234 L91.5839844,3.44042969 C91.8548177,3.04264323 92.1404622,2.74536133 92.440918,2.54858398 C92.7413737,2.35180664 93.0545247,2.25341797 93.3803711,2.25341797 C93.6258138,2.25341797 93.8881836,2.33170573 94.1674805,2.48828125 L93.7041016,3.23730469 C93.5179036,3.15690104 93.3613281,3.11669922 93.234375,3.11669922 C92.938151,3.11669922 92.6525065,3.23836263 92.3774414,3.48168945 C92.1023763,3.72501628 91.8929036,4.10270182 91.7490234,4.61474609 C91.6389974,5.00830078 91.5839844,5.8038737 91.5839844,7.00146484 L91.5839844,9.33740234 L90.6762695,9.33740234 L90.6762695,2.43115234 Z" id="Path"></path>
                    <path d="M100.737305,7.04589844 L101.486328,7.43945312 C101.240885,7.921875 100.957357,8.31119792 100.635742,8.60742188 C100.314128,8.90364583 99.9523112,9.12898763 99.550293,9.28344727 C99.1482747,9.4379069 98.6933594,9.51513672 98.1855469,9.51513672 C97.0598958,9.51513672 96.1796875,9.14591471 95.5449219,8.4074707 C94.9101562,7.66902669 94.5927734,6.8343099 94.5927734,5.90332031 C94.5927734,5.02734375 94.8614909,4.24658203 95.3989258,3.56103516 C96.0802409,2.68929036 96.9921875,2.25341797 98.1347656,2.25341797 C99.3111979,2.25341797 100.250651,2.69986979 100.953125,3.59277344 C101.452474,4.22330729 101.70638,5.01041667 101.714844,5.95410156 L95.5068359,5.95410156 C95.523763,6.75813802 95.7797852,7.41723633 96.2749023,7.93139648 C96.7700195,8.44555664 97.3815104,8.70263672 98.109375,8.70263672 C98.460612,8.70263672 98.8023275,8.64127604 99.1345215,8.51855469 C99.4667155,8.39583333 99.7491862,8.23291016 99.9819336,8.02978516 C100.214681,7.82666016 100.466471,7.49869792 100.737305,7.04589844 Z M100.737305,5.18603516 C100.618815,4.71207682 100.44637,4.33333333 100.219971,4.04980469 C99.993571,3.76627604 99.6941732,3.53776042 99.3217773,3.36425781 C98.9493815,3.19075521 98.5579427,3.10400391 98.1474609,3.10400391 C97.4703776,3.10400391 96.8885091,3.3219401 96.4018555,3.7578125 C96.0463867,4.07519531 95.7776693,4.55126953 95.5957031,5.18603516 L100.737305,5.18603516 Z" id="Shape"></path>
                    <path d="M109.186035,7.04589844 L109.935059,7.43945312 C109.689616,7.921875 109.406087,8.31119792 109.084473,8.60742188 C108.762858,8.90364583 108.401042,9.12898763 107.999023,9.28344727 C107.597005,9.4379069 107.14209,9.51513672 106.634277,9.51513672 C105.508626,9.51513672 104.628418,9.14591471 103.993652,8.4074707 C103.358887,7.66902669 103.041504,6.8343099 103.041504,5.90332031 C103.041504,5.02734375 103.310221,4.24658203 103.847656,3.56103516 C104.528971,2.68929036 105.440918,2.25341797 106.583496,2.25341797 C107.759928,2.25341797 108.699382,2.69986979 109.401855,3.59277344 C109.901204,4.22330729 110.155111,5.01041667 110.163574,5.95410156 L103.955566,5.95410156 C103.972493,6.75813802 104.228516,7.41723633 104.723633,7.93139648 C105.21875,8.44555664 105.830241,8.70263672 106.558105,8.70263672 C106.909342,8.70263672 107.251058,8.64127604 107.583252,8.51855469 C107.915446,8.39583333 108.197917,8.23291016 108.430664,8.02978516 C108.663411,7.82666016 108.915202,7.49869792 109.186035,7.04589844 Z M109.186035,5.18603516 C109.067546,4.71207682 108.895101,4.33333333 108.668701,4.04980469 C108.442301,3.76627604 108.142904,3.53776042 107.770508,3.36425781 C107.398112,3.19075521 107.006673,3.10400391 106.596191,3.10400391 C105.919108,3.10400391 105.33724,3.3219401 104.850586,3.7578125 C104.495117,4.07519531 104.2264,4.55126953 104.044434,5.18603516 L109.186035,5.18603516 Z" id="Shape"></path>
                    <path d="M111.483887,2.43115234 L112.391602,2.43115234 L112.391602,3.44042969 C112.662435,3.04264323 112.948079,2.74536133 113.248535,2.54858398 C113.548991,2.35180664 113.862142,2.25341797 114.187988,2.25341797 C114.433431,2.25341797 114.695801,2.33170573 114.975098,2.48828125 L114.511719,3.23730469 C114.325521,3.15690104 114.168945,3.11669922 114.041992,3.11669922 C113.745768,3.11669922 113.460124,3.23836263 113.185059,3.48168945 C112.909993,3.72501628 112.700521,4.10270182 112.556641,4.61474609 C112.446615,5.00830078 112.391602,5.8038737 112.391602,7.00146484 L112.391602,9.33740234 L111.483887,9.33740234 L111.483887,2.43115234 Z" id="Path"></path>
                    <path d="M116.708008,7.94091797 C116.923828,7.94091797 117.10791,8.01708984 117.260254,8.16943359 C117.412598,8.32177734 117.48877,8.50797526 117.48877,8.72802734 C117.48877,8.94384766 117.412598,9.12898763 117.260254,9.28344727 C117.10791,9.4379069 116.923828,9.51513672 116.708008,9.51513672 C116.492188,9.51513672 116.308105,9.4379069 116.155762,9.28344727 C116.003418,9.12898763 115.927246,8.94384766 115.927246,8.72802734 C115.927246,8.50797526 116.003418,8.32177734 116.155762,8.16943359 C116.308105,8.01708984 116.492188,7.94091797 116.708008,7.94091797 Z" id="Path"></path>
                </g>
            </g>
        </g>
    </g>
</svg>