<?xml version="1.0" encoding="UTF-8"?>
<svg width="41px" height="36px" viewBox="0 0 41 36" version="1.1" xmlns="http://www.w3.org/2000/svg" xmlns:xlink="http://www.w3.org/1999/xlink">
    <title>Combined Shape</title>
    <g id="Core-design" stroke="none" stroke-width="1" fill="none" fill-rule="evenodd">
        <g id="On-Demand-course" transform="translate(-176.000000, -2874.000000)" fill="#128BBA">
            <g id="Group-47" transform="translate(176.000000, 2845.000000)">
                <g id="Group-9" transform="translate(0.000000, 27.000000)">
                    <g id="Group-3" transform="translate(0.000000, 2.000000)">
                        <path d="M12.8651024,0 C18.1671176,1.9181942 17.540887,1.48937099 16.0471599,6.00352491 C15.0688403,8.95871106 14.0613567,11.9069375 12.9536549,14.8139413 C12.3125772,16.4955065 12.524679,17.4163253 14.2623231,18.3981752 C17.9953151,20.5080282 19.1682381,24.0456859 18.5690505,28.2118559 C18.0584154,31.7607561 15.1372431,34.8984999 11.5246189,35.70957 C7.64368596,36.5806005 4.2733881,35.507204 1.89466623,32.2891562 C-0.77251411,28.6829725 -0.378004732,24.7271989 1.55742434,20.9513062 C4.27391835,15.6517794 7.17600145,10.4491528 10.0054397,5.20851559 C10.9296733,3.498041 11.8761777,1.79987968 12.8651024,0 Z M37.4119602,0.345904509 L37.6914234,0.447346006 C37.8323401,0.498773373 37.9750396,0.550737906 38.1195448,0.600887186 C39.9218304,1.22668235 39.5465814,2.30656812 39.1020569,3.4190842 L39.0065097,3.65782635 C38.9589742,3.77729356 38.9123721,3.89678976 38.8692966,4.01579658 C37.64362,7.40215587 36.5200394,10.8297542 35.1817953,14.1690587 C34.5116261,15.8392396 34.5775958,16.6915131 36.3650628,17.6511137 C40.0284799,19.6163124 41.7326993,24.0098558 40.7044084,27.7689525 C39.4865853,32.2169527 35.9210757,35.0925823 31.6115735,35.1 C27.4638544,35.1073861 23.9072455,32.5093268 22.7983248,28.5810443 C22.5407286,27.6669124 22.5108851,26.6861635 22.2826087,25.0804846 C22.7501564,23.7100797 23.1700593,21.7121013 24.0742642,19.9700164 C27.2685629,13.8158834 30.7429714,7.80873047 33.8686825,1.62076027 C34.8984825,-0.417555279 36.0726441,-0.134196525 37.4119602,0.345904509 Z" id="Combined-Shape"></path>
                    </g>
                </g>
            </g>
        </g>
    </g>
</svg>